<?xml version="1.0" encoding="utf-8"?>
<svg viewBox="21.305 63.266 466.638 237.264" xmlns="http://www.w3.org/2000/svg">
  <defs>
    <linearGradient id="paint0_linear" x1="327.54" y1="250.471" x2="330.184" y2="46.9149" gradientUnits="userSpaceOnUse" gradientTransform="matrix(0.734953, 0, 0, 0.734953, 21.100754, 62.686153)">
      <stop stop-color="#E8D197"/>
      <stop offset="1" stop-color="#FEF5DA"/>
    </linearGradient>
    <linearGradient id="paint1_linear" x1="326.925" y1="147.902" x2="330.395" y2="242.079" gradientUnits="userSpaceOnUse" gradientTransform="matrix(0.734953, 0, 0, 0.734953, 21.100754, 62.686153)">
      <stop/>
      <stop offset="1" stop-opacity="0"/>
    </linearGradient>
    <linearGradient id="paint2_linear" x1="344.3" y1="64.1527" x2="344.961" y2="87.284" gradientUnits="userSpaceOnUse" gradientTransform="matrix(0.734953, 0, 0, 0.734953, 21.100754, 62.686153)">
      <stop stop-color="white"/>
      <stop offset="1" stop-color="white" stop-opacity="0"/>
    </linearGradient>
    <linearGradient id="paint3_linear" x1="130.102" y1="26.1247" x2="132.084" y2="77.0139" gradientUnits="userSpaceOnUse" gradientTransform="matrix(0.734953, 0, 0, 0.734953, 21.100754, 62.686153)">
      <stop stop-color="white"/>
      <stop offset="1" stop-color="white" stop-opacity="0"/>
    </linearGradient>
    <linearGradient id="paint4_linear" x1="455.752" y1="229.215" x2="433.942" y2="41.3544" gradientUnits="userSpaceOnUse" gradientTransform="matrix(0.734953, 0, 0, 0.734953, 21.100754, 62.686153)">
      <stop stop-color="#E8D197"/>
      <stop offset="1" stop-color="#FEF5DA"/>
    </linearGradient>
    <linearGradient id="paint5_linear" x1="60.0761" y1="430.474" x2="23.3198" y2="113.867" gradientUnits="userSpaceOnUse" gradientTransform="matrix(0.734953, 0, 0, 0.734953, 21.100754, 62.686153)">
      <stop stop-color="#E8D197"/>
      <stop offset="1" stop-color="#FEF5DA"/>
    </linearGradient>
    <linearGradient id="paint10_linear" x1="567.282" y1="246.761" x2="567.144" y2="239.051" gradientUnits="userSpaceOnUse" gradientTransform="matrix(0.734953, 0, 0, 0.734953, 21.100754, 62.686153)">
      <stop stop-color="#FECBA6"/>
      <stop offset="1" stop-color="#D17878"/>
    </linearGradient>
    <linearGradient id="paint11_linear" x1="575.336" y1="236.543" x2="417.383" y2="126.175" gradientUnits="userSpaceOnUse">
      <stop stop-color="white"/>
      <stop offset="1" stop-color="white" stop-opacity="0"/>
    </linearGradient>
    <linearGradient id="paint12_linear" x1="529.726" y1="200.324" x2="554.29" y2="176.972" gradientUnits="userSpaceOnUse">
      <stop stop-color="#FECBA6"/>
      <stop offset="1" stop-color="#D17878"/>
    </linearGradient>
    <linearGradient id="paint13_linear" x1="568.688" y1="209.407" x2="569.018" y2="182.751" gradientUnits="userSpaceOnUse" gradientTransform="matrix(0.734953, 0, 0, 0.734953, 21.100754, 62.686153)">
      <stop stop-color="#FECBA6"/>
      <stop offset="1" stop-color="#D17878"/>
    </linearGradient>
    <linearGradient id="paint14_linear" x1="552.343" y1="166.843" x2="558.043" y2="168.082" gradientUnits="userSpaceOnUse" gradientTransform="matrix(0.734953, 0, 0, 0.734953, 21.100754, 62.686153)">
      <stop stop-color="#FECBA6"/>
      <stop offset="1" stop-color="#D17878"/>
    </linearGradient>
    <linearGradient id="paint15_linear" x1="550.457" y1="250.958" x2="552.881" y2="239.337" gradientUnits="userSpaceOnUse" gradientTransform="matrix(0.734953, 0, 0, 0.734953, 21.100754, 62.686153)">
      <stop stop-color="#FECBA6"/>
      <stop offset="1" stop-color="#D17878"/>
    </linearGradient>
    <linearGradient id="paint16_linear" x1="95.6885" y1="163.838" x2="93.7609" y2="174.468" gradientUnits="userSpaceOnUse" gradientTransform="matrix(0.734953, 0, 0, 0.734953, 21.100754, 62.686153)">
      <stop stop-color="#FECBA6"/>
      <stop offset="1" stop-color="#D17878"/>
    </linearGradient>
    <linearGradient id="paint17_linear" x1="75.5473" y1="236.543" x2="233.501" y2="126.174" gradientUnits="userSpaceOnUse">
      <stop stop-color="white"/>
      <stop offset="1" stop-color="white" stop-opacity="0"/>
    </linearGradient>
    <linearGradient id="paint18_linear" x1="124.267" y1="190.961" x2="113.114" y2="194.142" gradientUnits="userSpaceOnUse">
      <stop stop-color="#FECBA6"/>
      <stop offset="1" stop-color="#D17878"/>
    </linearGradient>
  </defs>
  <g>
    <path id="Vector" d="M 95.551 250.246 C 95.551 250.246 102.754 263.034 154.715 268.84 C 206.676 274.647 232.914 294.123 265.914 299.929 C 298.913 305.735 339.776 267.371 375.201 273.25 C 410.626 279.056 453.4 256.861 456.781 250.246 L 95.551 250.246 Z" style="fill: rgb(11, 37, 89);"/>
    <path id="Vector_2" d="M 470.818 247.674 L 463.101 247.674 L 124.582 247.747 C 124.582 247.747 121.128 245.028 115.836 240.398 C 113.558 238.413 110.912 236.062 108.046 233.416 C 107.017 232.46 105.914 231.431 104.812 230.402 C 94.743 220.922 82.543 208.354 72.621 195.051 C 62.185 181.014 54.247 166.021 54.027 152.791 C 54.027 152.497 54.027 152.203 54.027 151.909 C 54.174 139.121 56.672 125.231 62.92 112.442 C 66.594 104.946 71.445 97.817 77.913 91.349 C 94.67 74.592 121.863 62.907 164.049 63.274 C 213.217 63.642 264.223 82.015 310.305 107.371 C 319.933 112.663 329.34 118.322 338.527 124.128 C 345.289 128.464 351.903 132.874 358.297 137.357 C 376.157 149.852 392.693 162.934 407.319 175.722 C 440.465 204.606 463.763 232.019 470.818 247.674 Z" fill="url(#paint0_linear)"/>
    <path id="Vector_3" opacity="0.45" d="M 470.818 247.674 L 463.101 247.674 L 124.582 247.747 C 124.582 247.747 121.128 245.028 115.836 240.398 C 113.558 238.413 110.912 236.062 108.046 233.416 C 107.017 232.46 105.914 231.431 104.812 230.402 C 94.743 220.922 82.543 208.354 72.621 195.051 C 62.185 181.014 54.247 166.021 54.027 152.791 C 58.216 150.587 68.064 146.103 76.222 148.161 C 86.879 150.807 89.157 163.522 89.157 163.522 C 89.157 163.522 96.801 157.348 104.812 160.288 C 112.823 163.228 114.072 171.753 114.072 171.753 C 114.072 171.753 123.553 166.902 132.005 168.96 C 140.531 171.018 147.366 179.25 138.252 184.615 C 129.212 189.907 119.07 185.791 118.776 185.717 C 118.923 185.864 122.451 190.715 115.983 196.595 C 109.369 202.621 134.724 207.839 134.724 207.839 C 134.724 207.839 135.68 191.376 152.657 193.214 C 169.635 195.051 183.378 204.238 183.378 204.238 C 183.378 204.238 184.26 179.029 197.857 174.399 C 211.454 169.769 218.436 184.615 218.436 184.615 C 218.436 184.615 248.569 165.139 258.785 183.292 C 269 201.445 269.441 204.9 269.441 204.9 C 269.441 204.9 278.187 157.128 305.528 159.332 C 332.868 161.537 337.939 180.499 337.498 182.41 C 337.057 184.321 345.362 170.136 353.593 177.853 C 361.825 185.57 366.602 196.301 366.602 196.301 L 409.891 191.229 C 409.891 191.229 405.481 182.704 407.245 175.722 C 440.465 204.606 463.763 232.019 470.818 247.674 Z" fill="url(#paint1_linear)"/>
    <path id="Vector_4" d="M 338.527 124.128 L 210.572 124.128 C 226.594 124.128 229.754 118.322 239.235 115.162 C 239.676 115.015 240.117 114.868 240.558 114.794 C 249.451 112.516 256.727 117.587 262.386 117.367 C 268.339 117.146 274.88 110.826 281.715 108.621 C 283.993 107.886 286.419 108.106 288.844 108.694 C 293.621 109.797 298.619 112.222 303.69 111.267 C 308.1 110.458 308.467 108.621 310.231 107.371 C 319.933 112.663 329.414 118.249 338.527 124.128 Z" fill="url(#paint2_linear)"/>
    <path id="Vector_5" d="M 172.869 112.442 L 62.92 112.442 C 66.521 105.093 71.298 98.037 77.619 91.643 C 77.692 91.57 77.839 91.423 77.913 91.349 C 80.485 90.835 83.278 90.467 86.291 90.32 C 103.709 89.585 107.384 102.741 107.384 102.741 C 107.384 102.741 111.941 96.641 120.172 99.581 C 128.404 102.521 125.538 106.122 132.079 108.106 C 132.961 108.327 133.843 108.4 134.798 108.327 C 141.045 107.812 148.909 100.977 155.891 103.476 C 163.976 106.342 158.757 112.442 172.869 112.442 Z" fill="url(#paint3_linear)"/>
    <path id="Vector_6" d="M 485.444 252.672 L 76.59 252.672 C 75.193 252.672 74.091 251.569 74.091 250.173 C 74.091 248.776 75.193 247.674 76.59 247.674 L 485.444 247.674 C 486.84 247.674 487.943 248.776 487.943 250.173 C 487.943 251.569 486.84 252.672 485.444 252.672 Z" style="fill: rgb(11, 37, 89);"/>
    <path id="Vector_7" opacity="0.25" d="M 288.918 108.621 C 281.642 110.458 273.41 118.396 268.045 119.572 C 261.357 121.041 253.566 117.661 245.996 115.75 C 243.718 115.162 241.954 114.868 240.558 114.721 C 249.451 112.442 256.727 117.514 262.386 117.293 C 268.339 117.073 274.88 110.752 281.715 108.547 C 284.067 107.812 286.419 108.033 288.918 108.621 Z" fill="white"/>
    <path id="Vector_8" opacity="0.25" d="M 134.798 108.327 C 128.257 111.781 125.17 103.991 119.511 101.418 C 112.97 98.478 108.34 107.665 106.429 106.048 C 104.518 104.505 103.636 97.67 96.213 94.142 C 92.024 92.158 83.866 91.717 77.692 91.717 C 77.766 91.643 77.913 91.496 77.986 91.423 C 80.558 90.908 83.351 90.541 86.365 90.394 C 103.783 89.659 107.458 102.815 107.458 102.815 C 107.458 102.815 112.014 96.714 120.246 99.654 C 128.477 102.594 125.611 106.195 132.152 108.18 C 132.961 108.327 133.916 108.4 134.798 108.327 Z" fill="white"/>
    <path id="Vector_9" d="M 311.334 92.305 C 311.334 92.305 357.268 133.315 375.422 127.729 C 393.722 122.144 279.216 67.978 311.334 92.305 Z" fill="url(#paint4_linear)"/>
    <path id="Vector_10" d="M 46.824 133.977 C 46.824 133.977 31.17 161.464 58.51 190.421 C 64.83 197.109 65.565 209.603 52.924 210.265 C 40.283 210.926 20.66 180.132 21.321 155.364 C 22.056 130.596 51.087 119.351 46.824 133.977 Z" fill="url(#paint5_linear)"/>
    <path id="Vector_11" d="M 359.914 280.012 C 359.914 280.012 333.456 285.818 326.694 294.858 C 323.387 299.268 336.543 298.606 347.787 293.755 C 359.547 288.684 369.174 279.424 359.914 280.012 Z" style="fill: rgb(11, 37, 89);"/>
    <path id="Vector_12" d="M 168.238 278.321 C 168.238 278.321 178.528 278.101 187.568 281.629 C 196.608 285.156 198.592 295.96 189.552 297.283 C 180.586 298.606 160.08 286.626 161.256 281.776 C 162.138 278.101 168.238 278.321 168.238 278.321 Z" style="fill: rgb(11, 37, 89);"/>
    <path id="Vector_13" d="M 121.275 219.746 L 115.469 239.883 C 113.19 237.899 110.545 235.547 107.678 232.901 L 106.429 230.549 C 106.429 230.549 108.634 204.679 101.358 194.316 C 108.34 199.167 111.72 218.79 111.72 218.79 L 110.618 220.26 L 111.72 220.26 C 111.72 220.26 113.484 223.567 114.146 228.418 C 118.629 205.194 114.293 193.949 114.146 193.581 C 114.293 193.802 117.821 198.064 119.878 205.12 C 122.01 212.323 121.201 216.806 121.201 216.806 L 119.437 219.672 L 121.275 219.672 L 121.275 219.746 Z" fill="black"/>
    <g id="Group_3" transform="matrix(0.734953, 0, 0, 0.734953, 21.100754, 62.686153)">
      <path id="Vector_14" d="M376.1 240.6C376.1 240.6 378.7 238.3 380.6 235.8C380.9 235.4 381.3 234.9 381.5 234.5L382.7 235.9L382.3 233.7C382.3 233.7 390.4 230.9 393.3 223.1C391.5 231.6 388.1 238 384.1 240.9C382.3 242.2 380.5 242.8 378.6 242.7C372.3 242.5 376.1 240.6 376.1 240.6Z" fill="#F3475C"/>
      <g id="Group_4" opacity="0.25">
        <path id="Vector_15" opacity="0.25" d="M393.3 223.1C392.6 225.3 391.8 227.5 390.8 229.6C389.8 231.7 388.7 233.7 387.4 235.6C386.1 237.5 384.5 239.3 382.6 240.6C380.7 242 378.3 242.7 376 242.6C375.9 242.6 375.8 242.5 375.8 242.4C375.8 242.3 375.9 242.2 376 242.2C378.3 242.4 380.5 241.7 382.4 240.4C384.3 239.1 385.9 237.4 387.2 235.5C388.6 233.6 389.7 231.6 390.7 229.5C391.7 227.5 392.5 225.3 393.3 223.1Z" fill="white"/>
      </g>
      <path id="Vector_16" opacity="0.25" d="M376.1 240.6C376.1 240.6 378.7 238.3 380.6 235.8C381.4 238.2 383.1 240 384.1 240.9C382.3 242.2 380.5 242.8 378.6 242.7C372.3 242.5 376.1 240.6 376.1 240.6Z" fill="black"/>
    </g>
    <path id="Vector_17" d="M 251.509 228.198 C 251.509 228.198 237.838 215.336 240.043 198.211 C 241.44 206.149 247.246 215.63 247.246 215.63 L 246.511 217.761 L 249.083 217.247 C 249.083 217.247 252.317 197.697 245.041 188.216 C 254.889 198.358 254.742 213.425 254.742 213.425 L 252.905 216.218 L 254.742 217.026 C 254.742 217.026 252.611 224.376 259.005 221.509 C 265.399 218.717 269.441 194.39 263.635 188.216 C 270.544 194.169 269.441 214.674 269.441 215.336 C 269.441 215.997 266.428 218.79 266.428 218.79 L 268.706 220.481 C 268.706 220.481 267.31 234.371 251.509 228.198 Z" fill="black"/>
    <path id="Vector_18" d="M 314.2 246.424 C 314.2 246.424 309.423 241.941 310.231 235.988 C 310.746 238.781 312.73 242.015 312.73 242.015 L 312.51 242.75 L 313.392 242.603 C 313.392 242.603 314.494 235.768 311.995 232.534 C 315.376 236.062 315.376 241.28 315.376 241.28 L 314.714 242.235 L 315.376 242.529 C 315.376 242.529 314.641 245.101 316.846 244.073 C 319.051 243.117 320.447 234.665 318.463 232.534 C 320.888 234.592 320.447 241.721 320.447 241.941 C 320.447 242.162 319.418 243.117 319.418 243.117 L 320.227 243.705 C 320.153 243.779 319.712 248.629 314.2 246.424 Z" fill="black"/>
    <g id="Group_5" transform="matrix(0.734953, 0, 0, 0.734953, 21.100754, 62.686153)">
      <path id="Vector_19" d="M374 241.1L368.7 241.5C372.5 238.1 371.9 234.8 371.4 233.3C371.2 232.8 371 232.4 371 232.4L373.5 232L372.1 230.1C372.1 230.1 376.6 224.9 378.3 211.1C383.6 220.4 381.5 228.8 378.7 234.3C376.6 238.6 374 241.1 374 241.1Z" fill="#FFCA51"/>
      <g id="Group_6" opacity="0.25">
        <path id="Vector_20" opacity="0.25" d="M378.3 211.1C378.9 213.7 379.2 216.3 379.3 218.9C379.4 221.5 379.4 224.2 379 226.8C378.6 229.4 378 232 377 234.4C376 236.8 374.5 239.1 372.7 241.1C372.6 241.2 372.5 241.2 372.4 241.1C372.3 241 372.3 240.9 372.4 240.8C374.2 238.9 375.6 236.7 376.7 234.3C377.7 231.9 378.4 229.3 378.8 226.8C379.2 224.2 379.3 221.6 379.2 219C379.1 216.3 378.9 213.7 378.3 211.1Z" fill="white"/>
      </g>
      <path id="Vector_21" opacity="0.25" d="M374 241.1L368.7 241.5C372.5 238.1 371.9 234.8 371.4 233.3C374.2 235 377 234.8 378.7 234.3C376.6 238.6 374 241.1 374 241.1Z" fill="black"/>
    </g>
    <path id="Vector_22" d="M 321.182 247.233 L 258.491 247.233 L 268.559 239.075 C 268.559 239.075 281.936 232.166 287.521 233.636 C 293.107 235.033 292.225 239.736 292.225 239.736 C 292.225 239.736 292.592 239.369 293.107 238.928 C 294.356 237.972 296.708 236.65 299.06 238.046 C 302.441 240.104 301.926 242.75 301.926 242.897 C 302 242.823 304.058 240.839 305.748 241.427 C 307.438 242.088 308.1 243.926 308.1 243.926 C 308.1 243.926 310.305 240.912 312.142 242.015 C 313.98 243.117 315.082 245.395 315.082 245.395 C 315.082 245.395 318.022 242.456 321.182 247.233 Z" fill="#982245"/>
    <path id="Vector_23" opacity="0.25" d="M 309.129 247.233 L 258.564 247.233 L 268.633 239.075 C 268.633 239.075 282.009 232.166 287.595 233.636 C 293.18 235.033 292.298 239.736 292.298 239.736 C 292.298 239.736 292.666 239.369 293.18 238.928 C 293.327 239.957 293.327 240.986 293.18 242.015 C 293.18 242.015 296.047 240.912 297.884 242.456 C 299.721 243.999 299.207 245.395 299.207 245.395 C 299.207 245.395 301.706 243.926 304.572 245.395 C 305.381 245.91 307.218 246.571 309.129 247.233 Z" fill="black"/>
    <path id="Vector_24" d="M 195.505 203.136 L 195.505 134.344 L 169.414 134.344 L 169.414 134.565 L 137.958 185.129 L 124.215 207.251 L 125.758 223.2 L 169.414 223.2 L 169.414 247.159 L 195.505 247.159 L 195.505 223.2 L 207.044 223.2 L 207.044 203.062 L 195.505 203.062 L 195.505 203.136 Z M 169.414 203.136 L 149.13 203.136 L 167.797 171.018 L 169.414 168.372 L 169.414 203.136 Z" style="fill: rgb(11, 37, 89);"/>
    <path id="Vector_26" d="M 379.39 203.136 L 379.39 134.344 L 353.3 134.344 L 353.3 134.565 L 308.1 207.251 L 309.643 223.2 L 353.3 223.2 L 353.3 247.159 L 379.39 247.159 L 379.39 223.2 L 390.856 223.2 L 390.856 203.062 L 379.39 203.062 L 379.39 203.136 Z M 353.3 203.136 L 333.015 203.136 L 351.683 171.018 L 353.3 168.372 L 353.3 203.136 L 353.3 203.136 Z" style="paint-order: fill; fill: rgb(11, 37, 89);"/>
    <path id="Vector_27" opacity="0.25" d="M 190.654 134.344 C 187.127 138.827 175.147 137.21 172.501 137.504 C 169.414 137.798 148.174 175.207 145.308 179.985 C 143.397 183.071 140.09 184.541 138.032 185.203 L 169.488 134.638 L 169.488 134.418 L 190.654 134.418 L 190.654 134.344 Z" fill="white"/>
    <path id="Vector_28" opacity="0.25" d="M 379.39 134.344 L 379.39 186.379 C 372.702 180.793 376.377 139.783 375.348 138.46 C 374.246 136.99 360.282 137.945 357.709 137.137 C 356.019 136.622 354.622 135.153 353.887 134.271 L 379.39 134.271 L 379.39 134.344 Z" fill="white"/>
    <path id="Vector_29" opacity="0.25" d="M 262.974 233.489 C 241.954 234.445 244.379 204.091 244.379 204.091 C 244.526 211.808 245.555 217.467 247.54 221.142 C 249.671 225.037 253.052 227.022 257.609 227.022 C 262.018 227.022 265.326 225.111 267.457 221.289 C 269.588 217.467 270.691 211.514 270.691 203.43 L 270.691 175.501 C 270.691 167.417 269.662 161.317 267.53 157.348 C 265.399 153.306 262.018 151.321 257.462 151.321 C 257.462 151.321 270.47 149.705 275.835 169.034 C 281.127 188.363 284.067 232.534 262.974 233.489 Z" fill="black"/>
    <path id="Vector_25" d="M 286.566 143.751 C 279.731 135.446 270.029 131.257 257.462 131.257 C 244.967 131.257 235.266 135.373 228.431 143.678 C 221.596 151.983 218.142 163.669 218.142 178.956 L 218.142 199.608 C 218.142 214.748 221.596 226.507 228.431 234.812 C 235.34 243.117 245.041 247.306 257.609 247.306 C 270.029 247.306 279.731 243.191 286.566 234.886 C 293.401 226.581 296.855 214.895 296.855 199.608 L 296.855 179.029 C 296.855 163.816 293.401 152.056 286.566 143.751 Z M 244.379 173.885 C 244.526 166.315 245.629 160.729 247.687 156.981 C 249.745 153.232 252.978 151.395 257.462 151.395 C 262.092 151.395 265.399 153.379 267.53 157.422 C 269.662 161.464 270.691 167.49 270.691 175.575 L 270.691 203.503 C 270.617 211.588 269.588 217.541 267.457 221.363 C 265.326 225.184 262.018 227.095 257.609 227.095 C 252.978 227.095 249.671 225.111 247.54 221.216 C 245.555 217.541 244.453 211.808 244.379 204.165 C 244.379 203.724 244.379 203.209 244.379 202.768 L 244.379 173.885 L 244.379 173.885 Z" style="fill: rgb(11, 37, 89);"/>
    <path id="Vector_30" d="M 235.34 143.604 C 235.34 143.604 226.594 137.284 225.638 127.436 C 231.959 129.199 235.34 136.916 235.34 136.916 C 235.34 136.916 233.723 129.861 235.34 125.084 C 239.97 131.845 238.72 137.357 235.34 143.604 Z" style="fill: rgb(7, 28, 70);"/>
    <path id="Vector_31" d="M 439.95 240.104 L 439.95 242.529 C 439.509 242.456 438.481 242.529 437.599 242.676 C 437.011 242.75 436.496 242.75 436.202 242.823 L 435.982 240.765 L 436.937 240.618 L 439.95 240.104 Z" fill="url(#paint10_linear)"/>
    <g id="handboy" transform="matrix(0.734953, 0, 0, 0.734953, 21.100754, 62.686153)">
      <path id="Vector_32" d="M529.1 188C529.1 188 529.2 188.3 528.8 188.7C528.5 189 528 189.3 527.1 189.7C521.7 191.8 510.6 186.7 504.5 183.3C498.5 179.9 481.3 182.7 469.7 181.1C458.1 179.5 453.2 173.3 442.8 170.7C432.4 168.1 393.6 179.3 391.4 170.6C389.2 161.9 432.8 77.2 436.6 83.1C440.3 89 453.2 89.4 462.3 94.1C471.4 98.8 479.1 122.1 489.2 124.4C490.6 124.7 491.9 125.2 493.2 125.9C501.2 130.2 507 140.9 507.2 149.7C507.4 159.9 521.4 168.1 526.5 173.6C531.5 179.2 529.1 188 529.1 188Z" fill="url(#paint11_linear)"/>
      <path id="Vector_33" opacity="0.25" d="M529.1 188C529.1 188 529.2 188.3 528.8 188.7C530.6 177.5 520.3 172.2 510.8 164.4C501.1 156.3 505.2 150.2 503.2 141.9C502 137 497 130.5 493.2 126C501.2 130.3 507 141 507.2 149.8C507.4 160 521.4 168.2 526.5 173.7C531.5 179.2 529.1 188 529.1 188Z" fill="white"/>
      <path id="Vector_34" d="M528.9 186.5L526.3 188.9C525.9 189.2 526.1 189.8 526.5 190L528.7 190.7L533.7 196.2C533.9 196.4 534.3 196.5 534.5 196.2L535.3 195.4C535.5 195.2 535.6 194.8 535.3 194.6L530.3 189.1L529.8 186.9C529.8 186.3 529.2 186.1 528.9 186.5Z" fill="#2F1829"/>
      <path id="Vector_35" d="M548.7 190C548 190.9 547.2 192 546.3 193.1C546 193.5 545.6 193.9 545.3 194.3C543.9 196 542.7 197.4 542.3 197.5C541.3 197.7 535.7 194.5 534.9 194.5C534.1 194.5 532.2 195.9 531.7 195.7C531.2 195.6 528.5 193.1 528.6 192.4C528.7 191.8 531.1 189.6 532.3 189.3C532.6 189.2 533.4 189.3 534.3 189.5H534.4C536.7 190 540.1 191.1 540.6 190.8C540.9 190.7 541.4 189.8 542 188.7C542.2 188.3 542.4 187.9 542.6 187.5C542.9 187 543.1 186.5 543.4 186C543.6 185.5 543.8 185.1 544 184.8C544.5 185.6 545.3 186.6 546.2 187.5C547.2 188.8 548.2 189.8 548.7 190Z" fill="url(#paint12_linear)"/>
    </g>
    <path id="Vector_36" d="M 441.053 207.178 C 441.053 208.501 441.053 209.824 440.979 210.853 C 440.685 215.042 440.318 218.423 438.922 218.496 C 437.525 218.57 437.231 207.251 437.305 206.59 C 437.305 206.443 437.305 206.149 437.378 205.781 C 437.452 204.532 437.452 202.327 437.452 201.372 C 437.452 201.151 437.452 201.004 437.452 200.931 L 437.746 200.784 L 440.832 198.799 C 440.832 198.799 440.979 201.445 441.126 204.532 C 441.126 204.973 441.126 205.341 441.126 205.781 C 441.053 206.222 441.053 206.663 441.053 207.178 Z" fill="url(#paint13_linear)"/>
    <path id="Vector_37" opacity="0.25" d="M 441.053 207.178 C 440.318 207.766 439.142 208.574 437.966 208.648 C 436.055 208.721 438.848 204.679 439.509 204.606 C 439.73 204.606 440.318 204.532 440.979 204.532 C 440.979 204.973 440.979 205.341 440.979 205.781 C 441.053 206.222 441.053 206.663 441.053 207.178 Z" fill="black"/>
    <path id="Vector_38" d="M 441.053 205.781 C 440.244 206.075 439.216 206.222 437.819 205.928 C 437.599 205.855 437.452 205.855 437.305 205.708 C 436.129 205.047 436.57 203.062 437.378 201.298 C 437.452 201.078 437.599 200.857 437.672 200.71 L 440.759 198.726 C 440.759 198.726 440.979 202.18 441.053 205.781 Z" fill="#2F1829"/>
    <path id="Vector_39" d="M 434.512 183.365 C 434.438 183.806 434.291 184.321 433.924 184.835 C 433.556 185.497 432.968 186.158 432.454 186.599 C 432.013 186.893 431.645 187.114 431.352 187.114 C 430.396 186.967 429.147 185.35 429.073 185.056 C 429.073 184.762 430.102 184.615 430.029 183.733 C 429.882 182.851 429.294 182.704 428.926 182.851 C 428.485 182.998 427.971 183.953 427.971 184.835 C 427.677 184.762 427.162 183.733 426.133 183.071 C 425.839 182.924 425.545 182.777 425.178 182.704 C 424.737 182.63 424.222 182.63 423.635 182.851 C 423.341 179.617 425.325 178.221 426.795 178.809 C 426.795 178.809 426.28 177.706 425.472 177.486 C 427.309 177.78 427.75 179.323 427.75 179.323 C 427.75 179.323 428.265 177.192 430.543 176.898 C 432.821 176.604 433.262 179.617 433.262 179.617 C 433.262 179.617 433.777 178.147 433.556 177.265 C 433.997 178.441 433.483 180.426 433.483 180.426 C 433.483 180.426 434.585 180.72 434.879 182.19 C 433.924 181.455 433.924 181.528 433.924 181.528 C 433.924 181.528 434.585 181.969 434.512 183.365 Z" fill="#2F172B"/>
    <path id="Vector_40" d="M 432.454 186.526 C 432.307 187.04 432.086 187.481 432.013 187.702 C 431.792 188.143 429.441 190.127 427.75 187.849 C 426.354 185.938 426.133 183.733 426.133 183.071 C 427.162 183.659 427.677 184.762 427.971 184.835 C 427.971 183.953 428.485 183.071 428.926 182.851 C 429.367 182.704 429.882 182.851 430.029 183.733 C 430.176 184.615 429.073 184.762 429.073 185.056 C 429.073 185.35 430.323 186.967 431.352 187.114 C 431.645 187.04 432.013 186.893 432.454 186.526 Z" fill="url(#paint14_linear)"/>
    <path id="Vector_41" d="M 433.63 177.045 C 433.556 176.898 433.556 176.824 433.483 176.751 C 433.556 176.824 433.556 176.971 433.63 177.045 Z" fill="#2F172B"/>
    <path id="Vector_42" d="M 441.788 198.358 C 441.567 198.799 441.273 199.167 441.053 199.534 C 440.979 199.608 440.906 199.755 440.832 199.828 C 440.097 200.71 439.436 201.225 439.436 201.225 C 439.436 201.225 439.436 201.225 439.436 201.298 C 439.436 201.372 439.436 201.445 439.509 201.592 C 439.583 201.886 439.656 202.401 439.73 203.062 C 439.73 203.136 439.73 203.283 439.803 203.356 C 439.877 203.65 439.877 203.944 439.877 204.238 C 439.877 204.385 439.95 204.606 439.95 204.753 C 439.95 204.826 439.95 204.973 439.95 205.047 C 440.024 205.561 440.024 206.002 440.024 206.516 C 440.024 206.59 440.024 206.737 440.024 206.81 C 440.024 207.398 439.95 207.913 439.877 208.28 C 439.877 208.427 439.803 208.501 439.803 208.574 C 439.73 208.721 439.73 208.795 439.656 208.868 C 439.583 208.942 439.436 209.015 439.289 209.089 C 438.187 209.603 435.394 209.603 432.527 209.456 C 430.102 209.309 427.677 209.089 426.427 208.868 C 426.06 208.795 425.766 208.721 425.545 208.574 C 425.398 208.501 425.251 208.354 425.178 208.28 C 425.104 208.207 425.031 208.133 425.031 208.06 C 424.81 207.692 424.737 207.325 424.737 206.81 C 424.737 206.737 424.737 206.59 424.737 206.516 C 424.81 206.075 424.884 205.635 424.957 205.12 L 424.957 205.047 C 424.957 204.973 425.031 204.826 425.031 204.753 C 425.178 204.238 425.325 203.797 425.398 203.283 C 425.398 203.209 425.398 203.136 425.472 203.062 L 425.472 202.989 C 425.619 202.401 425.692 201.886 425.692 201.519 C 425.692 201.372 425.692 201.298 425.766 201.225 C 425.839 200.269 425.766 199.975 425.766 199.975 C 425.766 199.975 425.545 200.563 425.178 201.225 C 425.104 201.298 425.031 201.445 425.031 201.519 C 424.81 201.886 424.516 202.254 424.369 202.254 C 424.369 202.254 424.296 202.254 424.222 202.254 C 424.002 202.18 423.708 201.886 423.341 201.519 C 423.267 201.445 423.12 201.298 423.047 201.225 C 422.826 201.004 422.606 200.784 422.385 200.49 C 422.165 200.269 421.944 199.975 421.724 199.755 C 421.65 199.681 421.577 199.534 421.503 199.461 C 421.209 199.093 420.989 198.799 420.768 198.505 C 420.621 198.285 420.548 198.138 420.474 197.991 C 420.401 197.918 420.401 197.844 420.401 197.771 L 420.401 197.697 C 420.474 197.477 420.621 196.889 420.842 196.227 C 420.915 196.154 420.915 196.007 420.989 195.933 C 421.136 195.492 421.356 194.978 421.65 194.463 C 421.724 194.39 421.724 194.243 421.797 194.169 C 422.018 193.728 422.312 193.214 422.532 192.699 C 422.606 192.626 422.679 192.479 422.679 192.405 C 422.973 191.891 423.267 191.376 423.561 190.935 C 423.635 190.862 423.708 190.715 423.781 190.641 C 424.222 190.054 424.59 189.539 425.031 189.172 C 425.178 189.025 425.251 188.951 425.398 188.878 C 425.472 188.804 425.545 188.804 425.619 188.731 C 426.207 188.363 426.795 188.069 427.383 187.849 C 429.367 187.114 431.058 187.187 431.058 187.187 C 432.013 187.187 432.968 187.408 433.924 187.775 C 434.585 188.069 435.247 188.437 435.908 188.878 C 436.055 188.951 436.202 189.098 436.349 189.172 C 436.864 189.613 437.378 190.054 437.819 190.641 C 437.893 190.715 437.966 190.862 438.113 190.935 C 438.481 191.376 438.848 191.891 439.142 192.405 C 439.216 192.479 439.289 192.626 439.362 192.699 C 439.656 193.14 439.877 193.655 440.171 194.169 C 440.244 194.243 440.244 194.39 440.318 194.463 C 440.538 194.904 440.759 195.419 440.979 195.933 C 441.053 196.007 441.053 196.154 441.126 196.227 C 441.273 196.668 441.494 197.183 441.641 197.697 C 441.641 197.771 441.714 197.918 441.714 197.991 C 441.788 198.138 441.788 198.285 441.788 198.358 Z" fill="#FFCA51"/>
    <g id="Group_10" transform="matrix(0.734953, 0, 0, 0.734953, 21.100754, 62.686153)">
      <path id="Vector_43" opacity="0.25" d="M565.2 172.2H549.9C550.1 172 550.2 171.9 550.4 171.8H564.6C564.8 171.9 565 172 565.2 172.2Z" fill="white"/>
      <path id="Vector_44" opacity="0.25" d="M567.6 174.6H548C548.1 174.5 548.2 174.3 548.3 174.2H567.3C567.3 174.3 567.4 174.4 567.6 174.6Z" fill="white"/>
      <path id="Vector_45" opacity="0.25" d="M569.2 177H546.4C546.5 176.9 546.6 176.7 546.6 176.6H569C569.1 176.7 569.1 176.8 569.2 177Z" fill="white"/>
      <path id="Vector_46" opacity="0.25" d="M570.5 179.4H545.2C545.3 179.3 545.3 179.1 545.4 179H570.3C570.4 179.1 570.4 179.2 570.5 179.4Z" fill="white"/>
      <path id="Vector_47" opacity="0.25" d="M571.5 181.8H544.2C544.3 181.7 544.3 181.5 544.4 181.4H571.4C571.4 181.5 571.5 181.7 571.5 181.8Z" fill="white"/>
      <path id="Vector_48" opacity="0.25" d="M572.3 184.2H543.6C543.5 184.1 543.5 184 543.5 183.9V183.8H572.2C572.2 183.9 572.3 184 572.3 184.2Z" fill="white"/>
      <path id="Vector_49" opacity="0.25" d="M571.4 186.2C571.3 186.3 571.2 186.5 571.1 186.6H545.4C545.3 186.5 545.2 186.3 545.1 186.2H571.4Z" fill="white"/>
      <path id="Vector_50" opacity="0.25" d="M547.1 188.6H550C549.9 188.7 549.8 188.9 549.8 189H547.5C547.4 188.9 547.3 188.7 547.1 188.6Z" fill="white"/>
      <path id="Vector_51" opacity="0.25" d="M569.3 189H550.7C550.7 188.8 550.7 188.7 550.8 188.6H569.3C569.3 188.7 569.3 188.8 569.3 189Z" fill="white"/>
      <path id="Vector_52" opacity="0.25" d="M569.7 191.4H550.3C550.3 191.3 550.3 191.2 550.4 191.1V191H569.7C569.7 191.1 569.7 191.3 569.7 191.4Z" fill="white"/>
      <path id="Vector_53" opacity="0.25" d="M570 193.8H549.7C549.7 193.7 549.8 193.5 549.8 193.4H570C569.9 193.6 570 193.7 570 193.8Z" fill="white"/>
      <path id="Vector_54" opacity="0.25" d="M570.1 195.8C570.1 195.9 570.1 196.1 570.1 196.2H549.3C549.3 196.1 549.3 195.9 549.3 195.8H570.1Z" fill="white"/>
      <path id="Vector_55" opacity="0.25" d="M569.9 198.2C569.9 198.4 569.8 198.5 569.8 198.6H550.5C550.3 198.5 550.1 198.3 550 198.2H569.9Z" fill="white"/>
    </g>
    <path id="Vector_56" d="M 440.244 238.119 C 439.583 238.56 435.1 239.001 435.1 239.001 L 434.953 238.193 L 434.144 233.269 L 432.16 221.73 L 430.176 236.209 L 429.588 240.471 C 429.588 240.471 424.075 240.765 424.075 239.442 C 424.075 239.295 424.075 238.707 424.149 237.752 C 424.296 231.872 424.957 212.543 425.104 208.207 C 425.325 208.648 425.839 208.942 426.574 209.015 C 426.648 209.015 426.721 209.015 426.795 209.015 C 429.588 209.456 437.452 210.118 439.362 209.236 C 439.436 209.971 439.509 211.073 439.583 212.47 C 439.877 218.055 440.097 228.198 440.244 233.857 C 440.244 236.429 440.244 238.119 440.244 238.119 Z" style="fill: rgb(11, 37, 89);"/>
    <path id="Vector_57" opacity="0.25" d="M 434.144 233.269 L 432.16 221.73 C 432.16 221.73 432.674 217.1 432.895 216.512 C 433.115 215.997 434.512 216.365 435.1 215.997 C 435.394 216.732 433.409 217.761 433.262 220.187 C 433.189 221.877 433.777 229.3 434.144 233.269 Z" fill="black"/>
    <path id="Vector_58" opacity="0.25" d="M 426.133 210.706 C 426.133 210.706 425.986 213.352 428.118 214.601" stroke="white" stroke-width="0.4635" stroke-miterlimit="10" stroke-linecap="round" stroke-linejoin="round"/>
    <g id="Group_11" opacity="0.25" transform="matrix(0.734953, 0, 0, 0.734953, 21.100754, 62.686153)">
      <g id="Group_12" opacity="0.25">
        <path id="Vector_59" opacity="0.25" d="M551.8 206.2L551.7 206.9" stroke="white" stroke-width="0.4635" stroke-linecap="round" stroke-linejoin="round"/>
        <path id="Vector_60" opacity="0.25" d="M551.7 208.2L550.3 238" stroke="white" stroke-width="0.4635" stroke-linecap="round" stroke-linejoin="round" stroke-dasharray="1.39 1.39"/>
        <path id="Vector_61" opacity="0.25" d="M550.2 238.7V239.4" stroke="white" stroke-width="0.4635" stroke-linecap="round" stroke-linejoin="round"/>
      </g>
    </g>
    <path id="Vector_62" opacity="0.25" d="M 434.144 216.732 L 436.129 237.531" stroke="white" stroke-width="0.4635" stroke-miterlimit="10" stroke-linecap="round" stroke-linejoin="round" stroke-dasharray="1.39 1.39"/>
    <path id="Vector_63" opacity="0.25" d="M 435.835 211.073 C 435.835 211.073 435.614 213.645 435.835 214.086 C 436.055 214.601 437.011 214.968 437.231 215.115 C 437.452 215.189 438.334 214.38 438.407 213.866 C 438.481 213.352 438.481 211.147 438.481 211.147 C 438.481 211.147 436.864 210.853 435.835 211.073 Z" stroke="white" stroke-width="0.4635" stroke-miterlimit="10" stroke-linecap="round" stroke-linejoin="round"/>
    <path id="Vector_64" opacity="0.25" d="M 440.244 238.119 C 439.583 238.56 435.1 239.001 435.1 239.001 L 434.953 238.193 C 436.276 237.458 438.848 235.841 440.171 233.857 C 440.244 236.429 440.244 238.119 440.244 238.119 Z" fill="black"/>
    <path id="Vector_65" d="M 440.538 240.03 L 439.95 240.104 L 435.982 240.692 L 435.688 240.765 C 435.1 240.839 434.585 240.471 434.438 239.883 L 434.438 239.81 C 434.365 239.222 434.732 238.707 435.32 238.56 L 440.171 237.825 C 440.759 237.752 441.273 238.119 441.42 238.707 L 441.42 238.781 C 441.494 239.369 441.126 239.957 440.538 240.03 Z" style="fill: rgb(28, 67, 144);"/>
    <path id="Vector_66" opacity="0.25" d="M 430.249 236.135 L 429.661 240.398 C 429.661 240.398 424.149 240.692 424.149 239.369 C 424.149 239.222 424.149 238.634 424.222 237.678 C 425.472 237.605 428.485 237.237 430.249 236.135 Z" fill="black"/>
    <path id="Vector_67" d="M 430.102 240.692 L 430.102 240.765 C 430.029 241.353 429.514 241.794 428.926 241.721 L 424.737 241.353 L 424.075 241.28 C 423.488 241.206 423.047 240.692 423.12 240.104 L 423.12 240.03 C 423.194 239.442 423.708 239.001 424.296 239.075 L 429.147 239.516 C 429.735 239.589 430.176 240.104 430.102 240.692 Z" style="fill: rgb(28, 67, 144);"/>
    <path id="Vector_68" opacity="0.25" d="M 439.583 212.47 C 432.821 213.352 428.265 210.265 426.721 209.015 C 429.514 209.456 437.378 210.118 439.289 209.236 C 439.436 209.971 439.509 211.073 439.583 212.47 Z" fill="black"/>
    <path id="Vector_69" opacity="0.25" d="M 425.619 203.136 C 426.133 200.71 425.913 200.049 425.913 200.049 C 425.913 200.049 425.031 202.254 424.516 202.327 C 424.296 202.327 423.414 201.519 422.532 200.563 C 423.267 200.343 424.369 199.975 424.957 199.314 C 425.839 198.285 425.766 193.875 426.133 193.875 C 426.501 193.875 427.309 202.033 425.031 205.194 C 425.251 204.532 425.472 203.797 425.619 203.136 Z" fill="black"/>
    <path id="Vector_70" opacity="0.25" d="M 441.788 198.358 C 440.759 200.269 439.436 201.225 439.436 201.225 C 439.436 201.225 438.26 194.904 437.893 194.316 C 437.599 193.802 438.04 193.361 438.701 195.492 C 439.216 197.183 440.538 198.432 441.714 198.138 C 441.788 198.138 441.788 198.211 441.788 198.358 Z" fill="black"/>
    <path id="Vector_71" opacity="0.25" d="M 439.656 209.015 C 439.583 209.089 439.436 209.162 439.289 209.236 C 438.187 209.75 435.394 209.75 432.527 209.603 C 434.438 209.383 439.069 208.354 439.877 204.312 C 440.097 206.149 440.244 208.354 439.656 209.015 Z" fill="black"/>
    <path id="Vector_72" opacity="0.25" d="M 434.144 187.775 C 433.924 188.069 433.483 188.216 432.748 188.069 C 431.352 187.775 429.514 188.363 428.632 188.216 C 428.118 188.143 427.824 187.996 427.603 187.849 C 429.588 187.114 431.278 187.187 431.278 187.187 C 432.233 187.187 433.189 187.408 434.144 187.775 Z" fill="black"/>
    <path id="Vector_73" d="M 424.369 202.327 C 423.855 202.989 423.267 203.797 422.606 204.606 C 421.209 203.797 420.107 202.327 419.445 201.445 C 420.033 200.416 420.621 199.167 420.915 198.579 C 421.283 199.167 421.871 199.902 422.532 200.563 C 423.267 201.445 424.002 202.18 424.369 202.327 Z" fill="#2F1829"/>
    <path id="Vector_74" opacity="0.25" d="M 424.369 202.327 C 423.855 202.989 423.267 203.797 422.606 204.606 C 422.385 204.9 422.091 205.194 421.871 205.488 C 421.944 202.915 421.062 200.637 420.548 199.461 C 420.695 199.093 420.842 198.799 420.989 198.579 C 421.356 199.167 421.944 199.902 422.606 200.563 C 423.267 201.445 424.002 202.18 424.369 202.327 Z" fill="black"/>
    <path id="Vector_75" opacity="0.25" d="M 419.96 200.563 C 419.96 201.298 419.225 202.401 419.078 202.695 C 418.857 203.062 419.004 204.753 418.784 204.532 C 418.563 204.312 418.49 203.503 418.196 203.209 C 417.902 202.989 414.521 202.107 413.933 201.96 C 415.624 202.327 418.122 203.136 418.49 202.915 C 418.71 202.842 419.078 202.18 419.519 201.372 C 419.666 201.225 419.813 200.931 419.96 200.563 Z" fill="white"/>
    <path id="Vector_76" opacity="0.25" d="M 433.924 184.835 C 433.556 185.497 432.968 186.158 432.454 186.599 C 432.013 186.893 431.645 187.114 431.352 187.114 C 430.396 186.967 429.147 185.35 429.073 185.056 C 429.073 184.762 430.102 184.615 430.029 183.733 C 429.882 182.851 429.294 182.704 428.926 182.851 C 428.485 182.998 427.971 183.953 427.971 184.835 C 427.677 184.762 427.162 183.733 426.133 183.071 C 425.839 182.924 425.545 182.777 425.178 182.704 C 425.692 182.63 426.354 182.63 426.721 182.777 C 427.603 183.145 427.677 183.512 427.677 183.512 C 427.677 183.512 427.824 182.19 429.294 181.896 C 430.543 181.675 431.499 185.056 433.924 184.835 Z" fill="black"/>
    <path id="Vector_77" d="M 429.661 247.233 L 420.033 247.233 C 420.033 247.233 419.96 246.939 419.96 246.571 C 419.96 246.057 420.107 245.395 420.915 245.101 C 421.209 244.954 421.503 244.881 421.797 244.734 C 422.973 244.146 424.296 243.411 424.516 242.97 C 424.516 242.97 424.59 242.97 424.737 243.044 C 424.957 243.117 425.398 243.338 425.913 243.485 C 426.133 243.558 426.354 243.558 426.574 243.558 C 427.089 243.558 428.191 243.264 428.853 243.191 C 429.147 243.117 429.367 243.117 429.441 243.264 C 429.588 243.485 429.735 245.469 429.808 246.571 C 429.588 246.939 429.661 247.233 429.661 247.233 Z" fill="#1F3247"/>
    <path id="Vector_78" d="M 428.926 241.721 C 428.853 242.162 428.779 242.676 428.632 243.117 C 428.118 243.191 427.456 243.338 426.942 243.411 C 426.721 243.411 426.574 243.485 426.427 243.485 C 425.839 243.485 425.031 243.117 424.663 242.97 C 424.663 242.456 424.737 241.794 424.737 241.28 L 426.427 241.427 L 428.926 241.721 Z" fill="url(#paint15_linear)"/>
    <path id="Vector_79" d="M 441.2 247.233 L 435.394 247.233 C 435.394 247.233 435.32 246.939 435.32 246.571 C 435.32 246.277 435.394 245.983 435.541 245.616 C 435.982 244.661 435.761 243.191 435.908 242.897 C 435.908 242.897 435.982 242.897 436.202 242.897 C 437.011 242.823 439.289 242.603 439.95 242.603 C 440.024 242.603 440.024 242.603 440.097 242.603 C 440.465 242.75 440.906 245.248 441.126 246.571 C 441.2 246.865 441.2 247.086 441.2 247.233 Z" fill="#1F3247"/>
    <path id="Vector_80" opacity="0.25" d="M 429.588 246.498 C 429.588 246.939 429.661 247.159 429.661 247.159 L 420.033 247.159 C 420.033 247.159 419.96 246.865 419.96 246.498 L 429.588 246.498 Z" fill="black"/>
    <path id="Vector_81" opacity="0.25" d="M 441.2 247.233 L 435.394 247.233 C 435.394 247.233 435.32 246.939 435.32 246.571 L 441.126 246.571 C 441.2 246.865 441.2 247.086 441.2 247.233 Z" fill="black"/>
    <path id="Vector_82" d="M 425.766 243.411 C 424.884 243.999 423.194 245.028 422.606 245.028 C 422.165 245.028 421.871 244.808 421.65 244.661 C 422.826 244.073 424.149 243.338 424.369 242.897 C 424.369 242.897 424.443 242.897 424.59 242.97 C 424.884 243.117 425.325 243.264 425.766 243.411 Z" fill="#122230"/>
    <path id="Vector_83" opacity="0.25" d="M 428.926 241.721 C 428.853 242.162 428.779 242.676 428.632 243.117 C 428.118 243.191 427.456 243.338 426.942 243.411 L 426.354 241.427 L 428.926 241.721 Z" fill="black"/>
    <path id="Vector_84" opacity="0.25" d="M 439.95 240.104 L 439.95 242.529 C 439.509 242.456 438.481 242.529 437.599 242.676 L 436.937 240.618 L 439.95 240.104 Z" fill="black"/>
    <path id="Vector_85" d="M 93.347 182.704 C 93.347 182.704 93.273 183.439 93.2 184.321 C 93.053 185.497 92.759 187.04 92.244 187.775 C 92.244 187.775 92.244 187.849 92.171 187.849 C 91.362 188.878 89.892 188.657 89.157 187.334 C 89.598 186.746 89.819 186.085 89.525 185.791 C 88.937 185.203 89.084 183.512 89.966 183.733 C 90.848 183.953 90.995 186.305 91.289 186.232 C 91.509 186.305 92.832 184.174 93.347 182.704 Z" fill="url(#paint16_linear)"/>
    <path id="Vector_86" d="M 93.641 181.675 C 93.641 181.896 93.567 182.263 93.42 182.704 C 93.347 182.924 93.2 183.218 93.126 183.439 C 92.538 184.762 91.583 186.232 91.362 186.305 C 91.068 186.379 90.921 183.953 90.039 183.806 C 89.157 183.586 89.01 185.276 89.598 185.864 C 89.892 186.158 89.672 186.82 89.231 187.408 C 88.716 187.996 87.981 188.437 87.173 187.922 C 85.703 187.04 85.409 181.308 85.409 180.867 C 85.409 180.867 85.409 180.499 85.483 179.985 C 85.63 179.25 86.144 178.368 87.394 177.78 C 89.598 176.824 93.641 177.045 93.641 181.675 Z" fill="#2F1829"/>
    <path id="Vector_87" d="M 105.179 205.488 C 105.179 205.561 105.179 205.635 105.106 205.635 C 105.032 205.928 104.959 206.075 104.885 206.075 C 104.812 206.075 104.371 206.075 103.709 206.002 C 102.828 205.855 101.505 205.708 100.329 205.488 C 98.859 205.194 97.536 204.9 97.095 204.679 C 96.727 204.459 96.139 203.724 95.551 202.842 C 95.405 202.621 95.258 202.401 95.111 202.107 C 94.376 200.931 93.788 199.755 93.641 199.461 C 93.641 199.387 93.567 199.387 93.567 199.387 C 93.567 199.387 93.567 199.387 93.567 199.461 C 93.567 199.755 93.42 200.931 93.053 202.107 C 92.979 202.327 92.906 202.621 92.759 202.842 C 92.685 203.062 92.538 203.283 92.391 203.43 C 92.024 204.018 92.097 204.753 92.318 205.488 C 92.318 205.561 92.391 205.635 92.391 205.781 C 92.465 205.928 92.538 206.075 92.612 206.222 C 92.759 206.516 92.832 206.737 92.979 206.957 C 93.347 207.692 93.641 208.354 93.567 208.721 C 93.567 208.795 93.494 208.795 93.42 208.868 C 93.347 208.942 93.347 208.942 93.273 209.015 C 93.053 209.162 92.612 209.383 92.097 209.603 C 89.231 210.779 82.763 212.176 79.97 209.603 C 79.897 209.53 79.897 209.53 79.823 209.456 C 79.677 209.236 79.603 209.089 79.603 208.868 C 79.603 208.574 79.75 208.354 79.97 207.986 C 80.264 207.472 80.779 206.957 81.146 206.149 C 81.293 205.928 81.367 205.708 81.44 205.414 C 81.587 205.047 81.734 204.606 81.734 204.091 C 81.808 203.65 81.808 203.136 81.881 202.695 C 81.881 202.474 81.955 202.18 81.955 201.96 C 82.028 201.004 82.028 200.122 82.028 199.314 C 82.028 199.093 82.028 198.799 82.028 198.579 C 82.028 197.624 81.955 196.742 81.955 195.933 C 81.955 195.713 81.955 195.419 81.955 195.198 C 81.955 194.243 81.955 193.361 82.028 192.552 C 82.028 192.332 82.102 192.038 82.102 191.817 C 82.322 190.715 82.763 189.833 83.572 189.172 L 83.645 189.098 C 83.939 188.878 84.233 188.657 84.454 188.437 C 84.748 188.216 85.042 188.069 85.262 187.849 C 87.026 186.82 87.908 186.967 87.908 186.967 C 87.908 186.967 88.422 186.967 89.231 187.114 C 90.039 187.261 90.995 187.481 92.024 187.849 C 92.171 187.922 92.244 187.922 92.391 187.996 C 92.685 188.143 92.906 188.216 93.2 188.363 C 93.347 188.437 93.567 188.584 93.714 188.657 C 93.935 188.804 94.155 188.951 94.302 189.098 C 94.817 189.466 95.184 189.907 95.551 190.421 C 95.772 190.788 96.066 191.303 96.286 191.744 C 96.433 191.964 96.507 192.185 96.654 192.479 C 97.021 193.361 97.462 194.243 97.83 195.125 C 97.903 195.345 98.05 195.639 98.124 195.86 C 98.491 196.815 98.859 197.771 99.079 198.505 C 99.153 198.726 99.226 199.02 99.3 199.24 C 99.594 200.049 99.741 200.563 99.814 200.784 C 99.888 201.078 100.549 201.372 101.358 201.666 C 101.652 201.739 101.872 201.813 102.166 201.886 C 102.754 202.033 103.268 202.18 103.783 202.327 C 104.15 202.401 104.518 202.548 104.812 202.621 C 105.106 202.695 105.253 202.768 105.326 202.842 C 105.326 202.842 105.326 202.915 105.4 202.989 C 105.4 203.65 105.326 204.753 105.179 205.488 Z" fill="#F5B539"/>
    <g id="Group_15" opacity="0.25" transform="matrix(0.734953, 0, 0, 0.734953, 21.100754, 62.686153)">
      <g id="Group_16" opacity="0.25">
        <path id="Vector_88" opacity="0.25" d="M98.1 171.4C98.4 171.6 98.7 171.7 99 171.9H85.7C85.9 171.7 86.2 171.5 86.4 171.4H98.1ZM98.1 171.2H86.2C85.8 171.5 85.5 171.7 85.1 172.1L85 172.2H99.7C99.2 171.8 98.7 171.5 98.1 171.2Z" fill="white"/>
      </g>
      <g id="Group_17" opacity="0.25">
        <path id="Vector_89" opacity="0.25" d="M102.1 176.1C102.2 176.3 102.3 176.4 102.4 176.6H83.1C83.1 176.4 83.2 176.2 83.2 176.1H102.1ZM102.3 175.8H83C82.9 176.1 82.9 176.4 82.9 176.8H102.8C102.6 176.5 102.4 176.1 102.3 175.8Z" fill="white"/>
      </g>
      <g id="Group_18" opacity="0.25">
        <path id="Vector_90" opacity="0.25" d="M104.2 180.7C104.3 180.9 104.3 181 104.4 181.2H83.1C83.1 181 83.1 180.9 83.1 180.7H104.2ZM104.3 180.5H82.8C82.8 180.8 82.8 181.1 82.8 181.5H104.7C104.6 181.1 104.4 180.8 104.3 180.5Z" fill="white"/>
      </g>
      <g id="Group_19" opacity="0.25">
        <path id="Vector_91" opacity="0.25" d="M105.9 185.3L106 185.7L106.1 185.9H83.3C83.3 185.7 83.3 185.6 83.3 185.4H105.9V185.3ZM106 185.1H83C83 185.4 83 185.7 83 186.1H106.4C106.3 185.8 106.1 185.4 106 185.1Z" fill="white"/>
      </g>
      <g id="Group_20" opacity="0.25">
        <path id="Vector_92" opacity="0.25" d="M97.6 189.9C97.5 190.1 97.5 190.3 97.4 190.4H83.1C83.1 190.2 83.1 190.1 83.1 189.9H97.6ZM97.9 189.7H82.9C82.9 190 82.9 190.3 82.8 190.7H97.5C97.7 190.4 97.8 190 97.9 189.7Z" fill="white"/>
      </g>
      <g id="Group_21" opacity="0.25">
        <path id="Vector_93" opacity="0.25" d="M110.2 189.9C110.8 190.1 111.4 190.2 111.9 190.4L112.1 190.5H101.5C101.4 190.3 101.3 190.2 101.2 190H110.2V189.9ZM110.2 189.7H100.7C100.9 190 101.1 190.4 101.3 190.7H113.7C113.3 190.6 112.9 190.4 112.3 190.3C111.8 190.1 111 189.9 110.2 189.7Z" fill="white"/>
      </g>
      <g id="Group_22" opacity="0.25">
        <path id="Vector_94" opacity="0.25" d="M96.9 194.6C96.9 194.6 96.9 194.7 97 194.7V194.8C97 194.9 97.1 195 97.1 195.1H82.2C82.3 194.9 82.4 194.8 82.4 194.6H96.9V194.6ZM97 194.3H82.2C82.1 194.7 81.9 195 81.8 195.3H97.4C97.3 195.1 97.2 194.9 97.1 194.7C97.1 194.6 97.1 194.5 97 194.3Z" fill="white"/>
      </g>
      <g id="Group_23" opacity="0.25">
        <path id="Vector_95" opacity="0.25" d="M114.1 194.6C114 194.9 113.9 195 113.9 195C113.9 195 113.9 195 113.8 195C113.6 195 113.1 195 112.4 194.9C111.8 194.8 111.2 194.7 110.5 194.6H114.1V194.6ZM114.4 194.3H107.8C109.4 194.6 111.2 194.9 112.4 195C113.1 195.1 113.6 195.1 113.8 195.1C113.9 195.1 113.9 195.1 114 195.1C114.1 195.1 114.2 194.8 114.3 194.5C114.4 194.5 114.4 194.4 114.4 194.3Z" fill="white"/>
      </g>
      <g id="Group_24" opacity="0.25">
        <path id="Vector_96" opacity="0.25" d="M97.8 199.2C97.5 199.4 97.1 199.5 96.7 199.7H80.4L80.3 199.6L80.1 199.8L80.2 199.6C80.1 199.5 80 199.4 80 199.2H97.8ZM98.5 199H79.7C79.7 199.3 79.8 199.5 80 199.8C80.1 199.9 80.1 199.9 80.2 200H96.7C97.4 199.7 97.9 199.4 98.3 199.2C98.4 199.1 98.4 199 98.5 199Z" fill="white"/>
      </g>
    </g>
    <path id="Vector_97" d="M 94.523 240.765 C 94.449 240.912 94.449 241.059 94.376 241.133 C 93.567 242.529 91.362 242.676 90.554 242.382 C 90.48 242.382 90.333 242.309 90.333 242.235 C 89.819 241.794 89.451 238.266 86.806 218.276 C 86.806 218.349 86.806 218.349 86.806 218.423 C 86.732 221.289 86.144 226.287 85.556 230.917 C 84.895 236.062 84.16 240.692 84.013 241.427 C 84.013 241.647 83.866 241.868 83.719 242.088 C 82.984 242.897 81.146 243.117 80.044 241.794 C 79.97 241.721 79.897 241.574 79.823 241.427 C 80.264 237.752 80.485 226.434 79.75 219.672 C 79.456 217.173 79.456 214.968 79.53 213.205 C 79.603 211.367 79.823 210.044 79.97 209.309 C 82.763 212.102 89.525 210.632 92.391 209.383 C 92.832 209.162 93.126 209.015 93.347 208.868 C 94.082 212.249 93.788 221.73 94.523 240.765 Z" style="fill: rgb(11, 37, 89);"/>
    <path id="Vector_98" opacity="0.25" d="M 92.465 188.143 C 87.761 188.29 86.438 195.566 86.438 195.566 L 85.336 187.922 C 87.1 186.893 87.981 187.04 87.981 187.04 C 87.981 187.04 90.26 187.187 92.465 188.143 Z" fill="black"/>
    <path id="Vector_99" d="M 99.888 247.159 C 99.888 247.159 91.877 247.159 90.554 247.159 C 90.48 246.865 90.48 246.498 90.48 246.057 C 90.48 245.91 90.48 245.763 90.48 245.542 C 90.48 244.44 90.48 243.117 90.554 242.456 C 90.774 242.529 91.068 242.603 91.436 242.529 C 92.171 242.529 93.053 242.309 93.714 241.868 C 93.935 241.721 94.155 241.427 94.302 241.206 C 94.89 242.456 96.066 243.264 97.168 243.852 C 98.124 244.367 99.079 244.734 99.447 245.028 C 99.814 245.322 99.961 245.689 99.961 246.057 C 100.108 246.571 99.888 247.159 99.888 247.159 Z" fill="#1F3247"/>
    <path id="Vector_100" d="M 83.792 246.057 C 83.792 246.792 83.719 247.159 83.719 247.159 L 78.354 247.159 C 78.427 246.792 78.501 246.424 78.574 246.057 C 79.015 244.22 79.677 242.603 79.97 241.941 C 80.338 242.382 80.779 242.603 81.22 242.75 C 81.734 242.897 82.249 242.897 82.763 242.75 C 83.131 242.603 83.498 242.456 83.719 242.162 C 83.866 243.705 83.792 245.101 83.792 246.057 Z" fill="#1F3247"/>
    <path id="Vector_101" opacity="0.25" d="M 93.641 208.721 C 93.641 208.795 93.494 208.942 93.347 209.015 C 91.656 210.191 83.131 212.69 79.97 209.456 C 79.53 209.015 79.75 208.574 80.117 208.06 C 80.558 208.427 81.367 208.795 82.837 209.089 C 85.703 209.53 90.701 208.795 93.126 207.031 C 93.42 207.766 93.714 208.354 93.641 208.721 Z" fill="black"/>
    <g id="girllight" transform="matrix(0.734953, 0, 0, 0.734953, 21.100754, 62.686153)">
      <path id="Vector_102" d="M121.8 188C121.8 188 119.4 179.3 124.5 173.8C129.6 168.3 143.5 160.1 143.8 149.9C144.1 139.7 151.7 126.9 161.8 124.5C171.9 122.2 179.6 98.8 188.7 94.2C197.8 89.5 210.7 89.1 214.4 83.2C218.1 77.3 261.7 162 259.6 170.7C257.4 179.4 218.6 168.2 208.2 170.8C197.8 173.4 192.9 179.6 181.3 181.2C169.7 182.8 152.5 180 146.5 183.4C140.5 186.8 129.4 191.8 123.9 189.8C121.6 188.8 121.8 188 121.8 188Z" fill="url(#paint17_linear)"/>
      <path id="Vector_103" d="M123.9 189.6L121.4 187.1C121 186.7 120.4 186.9 120.3 187.4L119.7 189.6L114.4 194.9C114.2 195.1 114.2 195.5 114.4 195.7L115.2 196.5C115.4 196.7 115.8 196.7 116 196.5L121.3 191.2L123.5 190.6C124.1 190.6 124.3 190 123.9 189.6Z" fill="#2F1829"/>
      <path id="Vector_104" d="M121.2 192.6C121.1 193.4 118.2 195.9 117.3 195.7C117.2 195.7 117 195.6 116.9 195.5C116.3 195.2 115.6 194.6 114.4 194.5C114.6 193.5 114.7 191.7 114.6 191.1C114.8 191 115 190.9 115.2 190.8C116.2 190.4 117.5 189.8 118 189.9C118.9 190.2 121.4 191.8 121.2 192.6Z" fill="url(#paint18_linear)"/>
      <path id="Vector_105" opacity="0.25" d="M114.4 194.6C114.3 195 114.2 195.2 114.1 195.2C114 195.2 113.4 195.2 112.5 195.1C113.1 192.8 112.7 191.1 112.5 190.3C113.6 190.6 114.4 190.8 114.5 191C114.5 191 114.5 191.1 114.6 191.2C114.7 191.8 114.6 193.6 114.4 194.6Z" fill="black"/>
    </g>
    <path id="Vector_106" opacity="0.25" d="M 92.538 205.781 C 91.436 204.753 91.95 203.871 92.538 201.813 C 93.126 199.681 91.95 198.799 91.73 196.448 C 91.509 194.096 91.803 192.773 93.2 191.229 C 91.436 195.786 93.641 199.387 93.641 199.387 C 93.641 199.387 93.567 201.886 92.465 203.503 C 92.024 204.091 92.171 204.973 92.538 205.781 Z" fill="black"/>
    <path id="Vector_107" opacity="0.25" d="M 93.053 183.512 C 92.465 184.835 91.509 186.305 91.289 186.379 C 90.995 186.452 90.848 184.027 89.966 183.88 C 89.084 183.659 88.937 185.35 89.525 185.938 C 89.819 186.232 89.598 186.893 89.157 187.481 C 88.643 188.069 87.908 188.51 87.1 187.996 C 85.63 187.114 85.336 181.381 85.336 180.94 C 85.336 180.94 85.336 180.573 85.409 180.058 C 86.144 179.985 87.834 180.132 88.202 181.602 C 88.569 183.071 88.569 183.733 88.569 184.027 C 88.643 183.586 89.01 182.336 90.407 182.63 C 91.215 182.704 92.171 183.292 93.053 183.512 Z" fill="black"/>
    <g id="hairgirl" transform="matrix(0.734953, 0, 0, 0.734953, 21.100754, 62.686153)">
      <path id="Vector_108" d="M89.6 161.6C89.6 161.6 88.8 159.9 86.1 160.4C83.5 160.9 82.3 164.3 83.5 169.8C83.5 164.9 84.2 163.8 84.2 163.8C84.2 163.8 83.1 166.8 84.5 173.5C85.9 180.2 86.8 186.7 83.2 189.5C90.3 185.5 90.8 180.7 90.3 174.9C90 169.1 91.3 164 89.6 161.6Z" fill="#2F1829"/>
    </g>
    <path id="Vector_109" opacity="0.25" d="M 90.113 185.791 C 90.039 186.085 91.068 187.481 92.171 187.775 C 92.171 187.775 92.171 187.849 92.097 187.849 C 92.097 187.922 92.024 187.922 92.024 187.996 C 90.995 187.628 89.966 187.334 89.231 187.261 C 89.598 186.746 89.745 186.158 89.451 185.864 C 88.863 185.276 89.01 183.586 89.892 183.806 C 90.774 184.027 90.921 186.379 91.215 186.305 C 91.436 186.232 92.759 184.174 93.273 182.704 C 93.273 182.704 93.2 183.439 93.126 184.321 C 92.832 184.835 92.171 185.938 91.656 186.379 C 90.995 186.967 90.701 186.232 90.554 185.791 C 90.48 185.423 90.186 185.423 90.113 185.791 Z" fill="black"/>
    <path id="Vector_110" opacity="0.25" d="M 80.999 213.278 C 80.999 213.278 80.852 215.997 81.22 216.732 C 81.587 217.467 82.616 217.982 82.616 217.982 C 82.616 217.982 83.939 217.394 84.307 216.585 C 84.674 214.968 84.601 212.984 84.601 212.984 C 84.601 212.984 81.955 212.396 80.999 213.278 Z" stroke="white" stroke-width="0.4635" stroke-miterlimit="10"/>
    <path id="Vector_111" opacity="0.25" d="M 92.538 211.073 C 92.538 211.073 92.685 213.352 90.701 214.454" stroke="white" stroke-width="0.4635" stroke-miterlimit="10" stroke-linecap="round" stroke-linejoin="round"/>
    <path id="Vector_112" opacity="0.25" d="M 92.024 213.058 L 93.641 240.251" stroke="white" stroke-width="0.4635" stroke-miterlimit="10" stroke-linecap="round" stroke-linejoin="round"/>
    <path id="Vector_113" opacity="0.25" d="M 86.732 218.496 C 86.659 221.363 86.071 226.36 85.483 231.064 C 85.409 225.625 84.601 218.937 84.895 217.835 C 85.703 218.57 86.732 218.496 86.732 218.496 Z" fill="black"/>
    <path id="Vector_114" opacity="0.25" d="M 85.336 219.231 L 83.057 241.427" stroke="white" stroke-width="0.4635" stroke-miterlimit="10" stroke-linecap="round" stroke-linejoin="round"/>
    <path id="Vector_115" opacity="0.25" d="M 92.318 209.603 C 90.995 210.926 86.879 214.16 79.456 213.425 C 79.53 211.588 79.75 210.265 79.897 209.53 C 82.69 212.323 89.525 210.779 92.318 209.603 Z" fill="black"/>
    <path id="Vector_116" opacity="0.25" d="M 78.648 246.057 L 83.792 246.057 C 83.792 246.792 83.719 247.159 83.719 247.159 L 78.354 247.159 C 78.427 246.792 78.501 246.424 78.648 246.057 Z" fill="black"/>
    <path id="Vector_117" opacity="0.25" d="M 99.888 247.159 C 99.888 247.159 91.877 247.159 90.554 247.159 C 90.48 246.865 90.48 246.498 90.48 246.057 L 100.035 246.057 C 100.108 246.571 99.888 247.159 99.888 247.159 Z" fill="black"/>
    <path id="Vector_118" opacity="0.25" d="M 97.242 243.779 C 95.551 244.587 94.376 242.897 93.788 241.794 C 94.008 241.647 94.229 241.353 94.376 241.133 C 94.964 242.382 96.139 243.191 97.242 243.779 Z" fill="white"/>
    <path id="Vector_119" opacity="0.25" d="M 82.763 242.75 C 82.616 245.248 81.734 245.322 81.293 245.028 C 80.852 244.808 81.146 243.191 81.293 242.676 C 81.734 242.897 82.249 242.897 82.763 242.75 Z" fill="black"/>
    <path id="Vector_120" opacity="0.25" d="M 90.48 245.542 C 90.48 244.44 90.48 243.117 90.554 242.456 C 90.774 242.529 91.068 242.603 91.436 242.529 C 91.583 243.338 91.656 245.175 90.48 245.542 Z" fill="black"/>
    <path id="Vector_121" opacity="0.25" d="M 105.179 205.708 C 105.326 204.973 105.4 203.65 105.326 203.209 C 105.473 203.136 105.62 203.062 105.767 202.989 C 106.208 203.65 107.017 204.9 107.09 206.369 C 106.576 206.149 106.135 205.708 105.179 205.708 Z" fill="black"/>
    <path id="Vector_122" opacity="0.25" d="M 101.284 201.886 C 99.814 202.033 98.785 203.577 98.712 203.283 C 98.565 202.915 99.373 202.18 99.3 201.666 C 99.226 201.151 96.948 195.345 95.698 192.479 C 94.964 190.715 94.229 189.539 93.788 188.804 C 94.008 188.951 94.229 189.098 94.376 189.245 C 94.89 189.613 95.258 190.054 95.625 190.568 C 95.845 190.935 96.139 191.45 96.36 191.891 C 96.507 192.111 96.58 192.332 96.727 192.626 C 97.095 193.508 97.536 194.39 97.903 195.272 C 97.977 195.492 98.124 195.786 98.197 196.007 C 98.565 196.962 98.932 197.918 99.153 198.652 C 99.226 198.873 99.3 199.167 99.373 199.387 C 99.667 200.196 99.814 200.71 99.888 200.931 C 99.888 201.298 100.476 201.592 101.284 201.886 Z" fill="white"/>
    <path id="Vector_123" d="M 456.487 248.629 C 455.972 248.262 440.685 206.957 458.324 183.439 C 455.899 200.049 457.222 213.645 457.222 213.645 L 454.944 215.924 L 457.516 216.659 C 457.516 216.659 459.206 239.736 460.088 242.382 C 458.177 225.111 462.881 215.042 462.881 215.042 C 462.881 215.042 462.073 227.316 463.616 231.799 L 462.367 233.416 L 463.616 233.195 C 463.616 233.195 462.734 240.618 463.616 242.823 C 463.616 242.823 473.464 213.425 468.834 200.49 C 474.934 209.897 473.17 225.699 473.17 225.699 L 471.627 226.287 L 472.582 227.022 C 472.582 227.022 470.01 243.852 464.204 248.556" style="fill: rgb(11, 37, 89);"/>
    <path id="Vector_124" d="M 353.373 243.779 C 353.373 243.779 339.703 242.529 334.264 246.351 C 336.837 242.676 347.199 240.986 347.199 240.986 L 347.934 241.574 L 347.934 240.986 C 347.934 240.986 349.698 240.104 352.271 239.736 C 339.85 237.311 333.897 239.663 333.897 239.663 C 333.897 239.663 336.175 237.752 339.997 236.65 C 343.819 235.547 346.17 235.988 346.17 235.988 L 347.714 236.944 L 347.714 235.915 L 360.943 239.81" fill="black"/>
    <path id="Vector_125" d="M 405.849 244.514 C 405.849 244.514 404.379 235.253 411.949 228.859 C 411.875 236.356 409.817 242.75 405.849 244.514 Z" stroke="#1F3247" stroke-width="0.9271" stroke-miterlimit="10"/>
    <g id="Group_26" transform="matrix(0.734953, 0, 0, 0.734953, 21.100754, 62.686153)">
      <path id="Vector_126" d="M454.5 239.1L452.5 244C451.1 239.1 448 238.1 446.4 238C445.8 237.9 445.5 238 445.5 238L446.2 235.6L443.9 236C443.9 236 441.3 229.7 429.6 222C440.3 221.4 446.9 227 450.6 232C453.4 235.7 454.5 239.1 454.5 239.1Z" fill="#FFCA51"/>
      <g id="Group_27" opacity="0.25">
        <path id="Vector_127" opacity="0.25" d="M429.6 222C432.1 222.6 434.6 223.5 437 224.6C439.4 225.7 441.7 226.9 443.9 228.3C446.1 229.8 448.1 231.5 449.9 233.5C451.6 235.5 453 237.8 454 240.3C454 240.4 454 240.6 453.9 240.6C453.8 240.6 453.6 240.6 453.6 240.5C452.7 238.1 451.4 235.8 449.7 233.8C448 231.8 446 230.1 443.9 228.6C441.7 227.1 439.4 225.9 437 224.8C434.6 223.6 432.1 222.6 429.6 222Z" fill="white"/>
      </g>
      <path id="Vector_128" opacity="0.25" d="M454.5 239.1L452.5 244C451.1 239.1 448 238.1 446.4 238C449.2 236.3 450.2 233.6 450.6 231.9C453.4 235.7 454.5 239.1 454.5 239.1Z" fill="black"/>
    </g>
    <g id="Group_28" transform="matrix(0.734953, 0, 0, 0.734953, 21.100754, 62.686153)">
      <path id="Vector_129" d="M531.8 215.8C512.6 231.6 507.7 239.4 507.7 239.4L504.3 237.9C504.3 237.9 504.3 238 504.3 238.2C504.3 239.1 504.4 241.5 504.3 242.4C504.2 243.1 497.4 246.8 493.5 248.8C491.9 249.6 490.9 250.2 490.9 250.2L487.7 247L488 246.4L489.7 243.2C489.7 243.2 494.1 236.9 501.6 230.3C508.9 223.7 519.4 216.9 531.8 215.8Z" fill="#FFADAE"/>
      <g id="Group_29" opacity="0.25">
        <path id="Vector_130" opacity="0.25" d="M489.6 248.9C492.2 245.1 495.1 241.5 498.1 238.1C501.1 234.7 504.4 231.4 507.8 228.4C511.3 225.4 515 222.7 519 220.4C523 218.2 527.3 216.5 531.8 215.7C527.3 216.5 523 218.2 519 220.5C515 222.8 511.4 225.5 507.9 228.5C504.5 231.5 501.3 234.8 498.3 238.2C495.3 241.6 492.5 245.2 489.9 249C489.8 249.1 489.7 249.1 489.6 249.1C489.5 249.2 489.5 249 489.6 248.9Z" fill="white"/>
      </g>
      <path id="Vector_131" opacity="0.25" d="M504.3 242.3C504.2 243 497.4 246.7 493.5 248.7C491.4 247.9 489.4 247 488 246.2L489.7 243C489.7 243 494.1 236.7 501.6 230.1C502 232.4 502.9 235.7 504.4 238.1C504.3 239 504.4 241.5 504.3 242.3Z" fill="black"/>
    </g>
    <g id="Group_30" transform="matrix(0.734953, 0, 0, 0.734953, 21.100754, 62.686153)">
      <path id="Vector_132" d="M519.7 205.4C506 216.8 499.7 226.4 497.1 231.2C495.9 233.4 495.5 234.7 495.5 234.7L492.5 233.6L493.7 236.3L489.3 245.1L487.4 249V233.6C488 232.5 488.8 231 489.8 229.3C491.7 226.1 494.4 222.2 497.9 218.4C499.5 216.7 501.2 215 503 213.4C507.8 209.6 513.3 206.5 519.7 205.4Z" fill="#F3475C"/>
      <g id="Group_31" opacity="0.25">
        <path id="Vector_133" opacity="0.25" d="M487.3 239.8C488.7 236 490.6 232.4 492.7 228.9C494.8 225.4 497.3 222.2 500 219.2C502.7 216.2 505.8 213.5 509.1 211.1L511.6 209.4L514.3 207.9C514.7 207.7 515.2 207.4 515.6 207.2L517 206.6L519.8 205.4L517 206.6L515.6 207.2C515.2 207.4 514.7 207.7 514.3 207.9L511.7 209.4L509.2 211.1C505.9 213.5 502.9 216.2 500.2 219.2C497.5 222.2 495.1 225.5 493.1 229C491 232.5 489.2 236.1 487.9 239.9C487.9 240 487.7 240.1 487.6 240C487.3 240.1 487.3 239.9 487.3 239.8Z" fill="white"/>
      </g>
      <path id="Vector_134" opacity="0.25" d="M495.6 234.8L492.6 233.7L493.8 236.4L489.4 245.2L487.5 245.5V233.7C488.1 232.6 488.9 231.1 489.9 229.4C491.3 230.5 493.7 231.8 497.1 231.3C496 233.5 495.6 234.8 495.6 234.8Z" fill="black"/>
    </g>
    <path id="Vector_135" d="M 415.917 247.233 L 379.39 247.233 L 379.39 242.088 C 379.39 242.088 379.905 240.839 381.375 240.104 C 381.816 239.883 382.404 239.663 382.992 239.589 C 385.711 239.222 386.666 241.5 386.666 241.5 C 386.666 241.5 387.328 239.516 390.047 239.295 C 392.693 239.075 394.31 243.191 394.383 243.485 C 394.383 243.264 394.163 240.986 396.221 240.839 C 398.352 240.692 398.352 243.485 398.352 243.485 C 398.352 243.485 400.043 241.647 402.247 241.721 C 404.452 241.868 404.893 243.999 404.893 243.999 C 404.893 243.999 406.143 242.162 408.788 242.823 C 411.508 243.411 411.875 247.233 415.917 247.233 Z" fill="#982245"/>
    <path id="Vector_136" opacity="0.25" d="M 404.526 247.233 L 379.464 247.233 L 379.464 242.088 C 379.464 242.088 379.978 240.839 381.448 240.104 C 382.551 240.177 384.462 240.545 385.27 242.015 C 386.446 244.146 386.519 246.13 386.519 246.13 C 386.519 246.13 388.945 242.603 390.929 243.191 C 392.913 243.779 393.942 246.13 393.942 246.13 C 393.942 246.13 396 243.926 397.764 244.661 C 398.573 245.101 401.659 246.204 404.526 247.233 Z" fill="black"/>
    <path id="Vector_137" d="M 332.5 248.629 C 332.353 248.556 328.091 236.944 333.015 230.329 C 332.353 235.033 332.721 238.854 332.721 238.854 L 332.059 239.516 L 332.794 239.736 C 332.794 239.736 333.309 246.204 333.529 247.012 C 333.015 242.162 334.338 239.295 334.338 239.295 C 334.338 239.295 334.117 242.75 334.558 243.999 L 334.191 244.44 L 334.558 244.367 C 334.558 244.367 334.338 246.424 334.558 247.086 C 334.558 247.086 337.351 238.854 336.028 235.18 C 337.719 237.825 337.278 242.235 337.278 242.235 L 336.837 242.382 L 337.131 242.603 C 337.131 242.603 336.396 247.306 334.779 248.629" style="fill: rgb(11, 37, 89);"/>
    <path id="Vector_138" d="M 165.886 244.881 C 165.886 244.881 144.352 230.402 131.785 231.725 C 139.428 227.977 158.169 234.592 158.169 234.592 L 158.904 236.282 L 159.419 235.327 C 159.419 235.327 163.167 235.4 167.724 237.237 C 149.35 221.803 137.297 220.334 137.297 220.334 C 137.297 220.334 142.809 219.305 150.158 220.922 C 157.508 222.538 161.036 225.478 161.036 225.478 L 162.726 228.418 L 163.608 226.801 L 181.982 245.322" fill="black"/>
    <path id="Vector_139" d="M 149.13 246.571 C 149.13 246.571 140.016 244.661 134.357 237.825 C 144.058 238.854 148.248 242.309 149.13 246.571 Z" stroke="#1F3247" stroke-width="0.9271" stroke-miterlimit="10"/>
    <g id="Group_33" transform="matrix(0.734953, 0, 0, 0.734953, 21.100754, 62.686153)">
      <path id="Vector_140" d="M215.5 194.6C214.4 219.4 217 228.3 217 228.3L213.6 229.9C213.6 229.9 213.7 230 213.8 230.1C214.5 230.7 216.3 232.3 216.9 232.9C217.4 233.4 215.6 241 214.5 245.2C214.1 246.9 213.8 248.1 213.8 248.1L209.3 248.3L209.1 247.6L207.8 244.2C207.8 244.2 206 236.7 206.1 226.8C206.1 216.9 208.1 204.5 215.5 194.6Z" fill="#FFADAE"/>
      <g id="Group_34" opacity="0.25">
        <path id="Vector_141" opacity="0.25" d="M212 248.1C210.9 243.6 210.2 239.1 209.6 234.6C209.1 230 208.8 225.5 208.9 220.9C209 216.3 209.4 211.7 210.4 207.3C211.4 202.8 213 198.5 215.5 194.6C213.1 198.5 211.5 202.8 210.5 207.3C209.5 211.8 209.1 216.3 209.1 220.9C209 225.5 209.4 230 209.9 234.6C210.5 239.1 211.3 243.6 212.4 248.1C212.4 248.2 212.4 248.4 212.2 248.4C212.2 248.3 212 248.3 212 248.1Z" fill="white"/>
      </g>
      <path id="Vector_142" opacity="0.25" d="M216.9 232.8C217.4 233.3 215.6 240.9 214.5 245.1C212.5 246.2 210.5 247 209 247.6L207.7 244.2C207.7 244.2 205.9 236.7 206 226.8C208 228 211 229.5 213.8 230C214.4 230.6 216.3 232.2 216.9 232.8Z" fill="black"/>
    </g>
    <g id="Group_35" transform="matrix(0.734953, 0, 0, 0.734953, 21.100754, 62.686153)">
      <path id="Vector_143" d="M233 211.6C226.9 222.3 225.1 230 224.6 233.7C224.4 235.4 224.4 236.3 224.4 236.3H222.2L223.6 237.8L222.9 244.6L222.6 247.6L218.9 237.7C219 236.8 219.2 235.7 219.4 234.3C219.9 231.8 220.7 228.6 222 225.3C222.6 223.8 223.3 222.3 224.1 220.9C226.3 217.2 229.1 213.9 233 211.6Z" fill="#F3475C"/>
      <g id="Group_36" opacity="0.25">
        <path id="Vector_144" opacity="0.25" d="M220.2 241.7C220.2 238.9 220.5 236.1 221.1 233.3C221.6 230.5 222.4 227.9 223.5 225.3C224.5 222.7 225.9 220.2 227.4 217.9L228.6 216.2L230 214.6C230.2 214.3 230.5 214.1 230.7 213.8L231.5 213.1L233 211.7L231.5 213.2L230.8 213.9C230.6 214.2 230.3 214.4 230.1 214.7L228.8 216.3L227.6 218C226.1 220.3 224.7 222.8 223.8 225.4C222.8 228 222.1 230.7 221.5 233.4C221 236.1 220.7 238.9 220.7 241.7C220.7 241.8 220.6 241.9 220.5 241.9C220.3 241.9 220.2 241.8 220.2 241.7Z" fill="white"/>
      </g>
      <path id="Vector_145" opacity="0.25" d="M224.4 236.4H222.2L223.6 237.9L222.9 244.7L221.7 245.3L218.9 237.7C219 236.8 219.2 235.7 219.4 234.3C220.5 234.7 222.4 235 224.5 233.8C224.4 235.5 224.4 236.4 224.4 236.4Z" fill="black"/>
    </g>
    <path id="Vector_146" d="M 207.779 247.159 L 198.665 247.159 L 158.978 247.233 L 147.219 247.233 C 147.219 247.233 148.174 244.073 152.804 242.603 C 157.435 241.133 158.757 244.146 158.757 244.146 C 158.757 244.146 158.537 238.119 163.976 236.062 C 169.414 234.004 171.84 240.912 171.84 240.912 C 171.84 240.912 172.942 237.531 178.748 237.237 C 184.554 236.944 183.966 241.5 183.966 241.5 C 183.966 241.5 187.274 237.825 193.227 238.634 C 199.18 239.442 199.768 244.22 199.768 244.22 C 199.768 244.22 204.986 242.603 207.779 247.159 Z" fill="#982245"/>
    <path id="Vector_147" opacity="0.25" d="M 198.665 247.159 L 158.978 247.233 C 161.036 245.395 164.417 243.044 167.944 242.97 C 173.75 242.897 174.706 245.028 174.706 245.028 C 174.706 245.028 178.307 241.206 181.1 241.868 C 183.966 242.529 184.04 245.542 184.04 245.542 C 184.04 245.542 193.153 243.411 198.665 247.159 Z" fill="black"/>
    <path id="Vector_148" d="M 214.32 249.732 C 214.32 249.732 207.705 238.046 209.69 226.728 C 211.601 235.621 216.378 241.5 216.378 241.5 L 214.467 243.044 L 216.378 243.044 L 220.493 250.908 L 214.908 249.732 L 214.908 250.246 L 214.32 249.732 Z" style="fill: rgb(11, 37, 89);"/>
  </g>
</svg>